{
    "asset" : {
        "generator" : "Khronos glTF Blender I/O v1.3.48",
        "version" : "2.0"
    },
    "scene" : 0,
    "scenes" : [
        {
            "extras" : {
                "blenderkitUI" : {
                    "assetbar_on" : 0,
                    "turn_off" : 0
                },
                "uuid" : "b34bea4a-eb2a-4977-a251-6808d7b9cc3e",
                "glTF2ExportSettings" : {
                    "export_animations" : 1,
                    "export_cameras" : 0,
                    "export_colors" : 1,
                    "export_extras" : 1,
                    "export_force_sampling" : 0,
                    "export_format" : "GLTF_EMBEDDED",
                    "export_image_format" : "AUTO",
                    "export_lights" : 0,
                    "export_morph" : 1,
                    "export_normals" : 1,
                    "export_skins" : 1,
                    "export_texcoords" : 1,
                    "export_yup" : 1,
                    "use_selection" : 1
                },
                "sun_pos_properties" : {
                    "day_of_year" : 197
                }
            },
            "name" : "Scene",
            "nodes" : [
                0
            ]
        }
    ],
    "nodes" : [
        {
            "extras" : {
                "sparkar_optimization" : {
                    "InvertedReducePercentage" : 0
                },
                "spark_blender_addon" : 1
            },
            "mesh" : 0,
            "name" : "comoda_padua_estructura.001"
        }
    ],
    "materials" : [
        {
            "doubleSided" : true,
            "emissiveFactor" : [
                0,
                0,
                0
            ],
            "name" : "wood",
            "pbrMetallicRoughness" : {
                "baseColorFactor" : [
                    0.3588401675224304,
                    0.1867712438106537,
                    0.07335247844457626,
                    1
                ],
                "metallicFactor" : 0,
                "roughnessFactor" : 0.5
            }
        },
        {
            "doubleSided" : true,
            "emissiveFactor" : [
                0,
                0,
                0
            ],
            "name" : "guide_drawer",
            "pbrMetallicRoughness" : {
                "baseColorFactor" : [
                    0,
                    0.0033294290769845247,
                    0.00807574950158596,
                    1
                ],
                "metallicFactor" : 0.8439716100692749,
                "roughnessFactor" : 0.3439716100692749
            }
        },
        {
            "doubleSided" : true,
            "emissiveFactor" : [
                0,
                0,
                0
            ],
            "name" : "melanin",
            "pbrMetallicRoughness" : {
                "baseColorFactor" : [
                    1,
                    0.9893108010292053,
                    0.9576403498649597,
                    1
                ],
                "metallicFactor" : 0,
                "roughnessFactor" : 0.5
            }
        },
        {
            "doubleSided" : true,
            "emissiveFactor" : [
                0,
                0,
                0
            ],
            "name" : "veener",
            "pbrMetallicRoughness" : {
                "baseColorFactor" : [
                    0.13758349418640137,
                    0.08822117000818253,
                    0.020328503102064133,
                    1
                ],
                "metallicFactor" : 0,
                "roughnessFactor" : 0.5
            }
        },
        {
            "doubleSided" : true,
            "emissiveFactor" : [
                0,
                0,
                0
            ],
            "name" : "cup_hinger",
            "pbrMetallicRoughness" : {
                "baseColorFactor" : [
                    0.9067512154579163,
                    1,
                    0.9707819819450378,
                    1
                ],
                "metallicFactor" : 0.8794326186180115,
                "roughnessFactor" : 0.3085106313228607
            }
        },
        {
            "doubleSided" : true,
            "emissiveFactor" : [
                0,
                0,
                0
            ],
            "name" : "handle",
            "pbrMetallicRoughness" : {
                "baseColorFactor" : [
                    0.21876457333564758,
                    0.2287931740283966,
                    0.36723822355270386,
                    1
                ],
                "metallicFactor" : 0,
                "roughnessFactor" : 0.5
            }
        },
        {
            "doubleSided" : true,
            "emissiveFactor" : [
                0,
                0,
                0
            ],
            "name" : "screws_5mm",
            "pbrMetallicRoughness" : {
                "baseColorFactor" : [
                    0.8000000715255737,
                    0.40944600105285645,
                    0,
                    1
                ],
                "metallicFactor" : 0.7234042286872864,
                "roughnessFactor" : 0.28723403811454773
            }
        }
    ],
    "meshes" : [
        {
            "name" : "comoda_padua_estructura.001",
            "primitives" : [
                {
                    "attributes" : {
                        "POSITION" : 0,
                        "NORMAL" : 1,
                        "TEXCOORD_0" : 2
                    },
                    "indices" : 3,
                    "material" : 0
                },
                {
                    "attributes" : {
                        "POSITION" : 4,
                        "NORMAL" : 5,
                        "TEXCOORD_0" : 6
                    },
                    "indices" : 7,
                    "material" : 1
                },
                {
                    "attributes" : {
                        "POSITION" : 8,
                        "NORMAL" : 9,
                        "TEXCOORD_0" : 10
                    },
                    "indices" : 11,
                    "material" : 2
                },
                {
                    "attributes" : {
                        "POSITION" : 12,
                        "NORMAL" : 13,
                        "TEXCOORD_0" : 14
                    },
                    "indices" : 15,
                    "material" : 3
                },
                {
                    "attributes" : {
                        "POSITION" : 16,
                        "NORMAL" : 17,
                        "TEXCOORD_0" : 18
                    },
                    "indices" : 19,
                    "material" : 4
                },
                {
                    "attributes" : {
                        "POSITION" : 20,
                        "NORMAL" : 21,
                        "TEXCOORD_0" : 22
                    },
                    "indices" : 23,
                    "material" : 5
                },
                {
                    "attributes" : {
                        "POSITION" : 24,
                        "NORMAL" : 25,
                        "TEXCOORD_0" : 26
                    },
                    "indices" : 27,
                    "material" : 6
                }
            ]
        }
    ],
    "accessors" : [
        {
            "bufferView" : 0,
            "componentType" : 5126,
            "count" : 144,
            "max" : [
                -0.001100003719329834,
                0.9040001630783081,
                0.5920000672340393
            ],
            "min" : [
                -0.35510000586509705,
                0,
                -0.6080000996589661
            ],
            "type" : "VEC3"
        },
        {
            "bufferView" : 1,
            "componentType" : 5126,
            "count" : 144,
            "type" : "VEC3"
        },
        {
            "bufferView" : 2,
            "componentType" : 5126,
            "count" : 144,
            "type" : "VEC2"
        },
        {
            "bufferView" : 3,
            "componentType" : 5123,
            "count" : 216,
            "type" : "SCALAR"
        },
        {
            "bufferView" : 4,
            "componentType" : 5126,
            "count" : 6624,
            "max" : [
                0.19990003108978271,
                0.6998001933097839,
                0.182000070810318
            ],
            "min" : [
                -0.35010001063346863,
                0.03820006549358368,
                -0.5879999995231628
            ],
            "type" : "VEC3"
        },
        {
            "bufferView" : 5,
            "componentType" : 5126,
            "count" : 6624,
            "type" : "VEC3"
        },
        {
            "bufferView" : 6,
            "componentType" : 5126,
            "count" : 6624,
            "type" : "VEC2"
        },
        {
            "bufferView" : 7,
            "componentType" : 5123,
            "count" : 13296,
            "type" : "SCALAR"
        },
        {
            "bufferView" : 8,
            "componentType" : 5126,
            "count" : 812,
            "max" : [
                0.3580999970436096,
                0.9040001630783081,
                0.5920000672340393
            ],
            "min" : [
                -0.35510000586509705,
                7.694522915260628e-21,
                -0.6080000996589661
            ],
            "type" : "VEC3"
        },
        {
            "bufferView" : 9,
            "componentType" : 5126,
            "count" : 812,
            "type" : "VEC3"
        },
        {
            "bufferView" : 10,
            "componentType" : 5126,
            "count" : 812,
            "type" : "VEC2"
        },
        {
            "bufferView" : 11,
            "componentType" : 5123,
            "count" : 1362,
            "type" : "SCALAR"
        },
        {
            "bufferView" : 12,
            "componentType" : 5126,
            "count" : 100,
            "max" : [
                0.19990003108978271,
                0.9040001630783081,
                0.5920000672340393
            ],
            "min" : [
                -0.3580999970436096,
                7.694522915260628e-21,
                -0.6080000996589661
            ],
            "type" : "VEC3"
        },
        {
            "bufferView" : 13,
            "componentType" : 5126,
            "count" : 100,
            "type" : "VEC3"
        },
        {
            "bufferView" : 14,
            "componentType" : 5126,
            "count" : 100,
            "type" : "VEC2"
        },
        {
            "bufferView" : 15,
            "componentType" : 5123,
            "count" : 150,
            "type" : "SCALAR"
        },
        {
            "bufferView" : 16,
            "componentType" : 5126,
            "count" : 6082,
            "max" : [
                0.01257401704788208,
                0.8140900135040283,
                0.5790811777114868
            ],
            "min" : [
                -0.09673300385475159,
                0.060889605432748795,
                0.5576645731925964
            ],
            "type" : "VEC3"
        },
        {
            "bufferView" : 17,
            "componentType" : 5126,
            "count" : 6082,
            "type" : "VEC3"
        },
        {
            "bufferView" : 18,
            "componentType" : 5126,
            "count" : 6082,
            "type" : "VEC2"
        },
        {
            "bufferView" : 19,
            "componentType" : 5123,
            "count" : 11742,
            "type" : "SCALAR"
        },
        {
            "bufferView" : 20,
            "componentType" : 5126,
            "count" : 180,
            "max" : [
                0.23589998483657837,
                0.8551139831542969,
                0.6080000996589661
            ],
            "min" : [
                -0.01510000228881836,
                0.19851207733154297,
                -0.2319079041481018
            ],
            "type" : "VEC3"
        },
        {
            "bufferView" : 21,
            "componentType" : 5126,
            "count" : 180,
            "type" : "VEC3"
        },
        {
            "bufferView" : 22,
            "componentType" : 5126,
            "count" : 180,
            "type" : "VEC2"
        },
        {
            "bufferView" : 23,
            "componentType" : 5123,
            "count" : 300,
            "type" : "SCALAR"
        },
        {
            "bufferView" : 24,
            "componentType" : 5126,
            "count" : 5280,
            "max" : [
                0.17487198114395142,
                0.6862731575965881,
                0.17018207907676697
            ],
            "min" : [
                -0.2553290128707886,
                0.039168067276477814,
                -0.5791799426078796
            ],
            "type" : "VEC3"
        },
        {
            "bufferView" : 25,
            "componentType" : 5126,
            "count" : 5280,
            "type" : "VEC3"
        },
        {
            "bufferView" : 26,
            "componentType" : 5126,
            "count" : 5280,
            "type" : "VEC2"
        },
        {
            "bufferView" : 27,
            "componentType" : 5123,
            "count" : 10368,
            "type" : "SCALAR"
        }
    ],
    "bufferViews" : [
        {
            "buffer" : 0,
            "byteLength" : 1728,
            "byteOffset" : 0
        },
        {
            "buffer" : 0,
            "byteLength" : 1728,
            "byteOffset" : 1728
        },
        {
            "buffer" : 0,
            "byteLength" : 1152,
            "byteOffset" : 3456
        },
        {
            "buffer" : 0,
            "byteLength" : 432,
            "byteOffset" : 4608
        },
        {
            "buffer" : 0,
            "byteLength" : 79488,
            "byteOffset" : 5040
        },
        {
            "buffer" : 0,
            "byteLength" : 79488,
            "byteOffset" : 84528
        },
        {
            "buffer" : 0,
            "byteLength" : 52992,
            "byteOffset" : 164016
        },
        {
            "buffer" : 0,
            "byteLength" : 26592,
            "byteOffset" : 217008
        },
        {
            "buffer" : 0,
            "byteLength" : 9744,
            "byteOffset" : 243600
        },
        {
            "buffer" : 0,
            "byteLength" : 9744,
            "byteOffset" : 253344
        },
        {
            "buffer" : 0,
            "byteLength" : 6496,
            "byteOffset" : 263088
        },
        {
            "buffer" : 0,
            "byteLength" : 2724,
            "byteOffset" : 269584
        },
        {
            "buffer" : 0,
            "byteLength" : 1200,
            "byteOffset" : 272308
        },
        {
            "buffer" : 0,
            "byteLength" : 1200,
            "byteOffset" : 273508
        },
        {
            "buffer" : 0,
            "byteLength" : 800,
            "byteOffset" : 274708
        },
        {
            "buffer" : 0,
            "byteLength" : 300,
            "byteOffset" : 275508
        },
        {
            "buffer" : 0,
            "byteLength" : 72984,
            "byteOffset" : 275808
        },
        {
            "buffer" : 0,
            "byteLength" : 72984,
            "byteOffset" : 348792
        },
        {
            "buffer" : 0,
            "byteLength" : 48656,
            "byteOffset" : 421776
        },
        {
            "buffer" : 0,
            "byteLength" : 23484,
            "byteOffset" : 470432
        },
        {
            "buffer" : 0,
            "byteLength" : 2160,
            "byteOffset" : 493916
        },
        {
            "buffer" : 0,
            "byteLength" : 2160,
            "byteOffset" : 496076
        },
        {
            "buffer" : 0,
            "byteLength" : 1440,
            "byteOffset" : 498236
        },
        {
            "buffer" : 0,
            "byteLength" : 600,
            "byteOffset" : 499676
        },
        {
            "buffer" : 0,
            "byteLength" : 63360,
            "byteOffset" : 500276
        },
        {
            "buffer" : 0,
            "byteLength" : 63360,
            "byteOffset" : 563636
        },
        {
            "buffer" : 0,
            "byteLength" : 42240,
            "byteOffset" : 626996
        },
        {
            "buffer" : 0,
            "byteLength" : 20736,
            "byteOffset" : 669236
        }
    ],
    "buffers" : [
        {
            "byteLength" : 689972,
            "uri" : "data:application/octet-stream;base64,"
        }
    ]
}
