{
    "asset" : {
        "generator" : "Khronos glTF Blender I/O v1.3.48",
        "version" : "2.0"
    },
    "scene" : 0,
    "scenes" : [
        {
            "extras" : {
                "blenderkitUI" : {
                    "assetbar_on" : 0,
                    "turn_off" : 0
                },
                "uuid" : "3f710867-fc0d-4b74-b433-bf9a1ef73c29",
                "glTF2ExportSettings" : {
                    "export_animations" : 1,
                    "export_cameras" : 0,
                    "export_colors" : 1,
                    "export_extras" : 1,
                    "export_force_sampling" : 0,
                    "export_format" : "GLTF_EMBEDDED",
                    "export_image_format" : "AUTO",
                    "export_lights" : 0,
                    "export_morph" : 1,
                    "export_normals" : 1,
                    "export_skins" : 1,
                    "export_texcoords" : 1,
                    "export_yup" : 1,
                    "use_selection" : 1
                },
                "sun_pos_properties" : {
                    "day_of_year" : 189
                }
            },
            "name" : "Scene",
            "nodes" : [
                0
            ]
        }
    ],
    "nodes" : [
        {
            "extras" : {
                "blenderkit" : {
                    "category" : 4,
                    "name" : "Chair Karlstad",
                    "name_changed" : 0,
                    "name_old" : "Chair Karlstad",
                    "is_generating_thumbnail" : 0,
                    "has_thumbnail" : 1,
                    "thumbnail_generating_state" : "",
                    "thumbnail" : "//Chair Karlstad.jpg",
                    "description" : "Chair Karlstad, low poly chair ",
                    "tags" : "chair, armchair, ikea, karlstad, interior, furniture, couch",
                    "is_free" : 1,
                    "pbr" : 1,
                    "work_hours" : 6,
                    "texture_resolution_max" : 0,
                    "texture_resolution_min" : 0,
                    "uv" : 1,
                    "texture_count" : 0,
                    "total_megapixels" : 0,
                    "node_count" : 0,
                    "materials" : "Chair fabric, chair wood, ",
                    "shaders" : "",
                    "dimensions" : [
                        0.833767831325531,
                        0.8688360452651978,
                        0.8103283643722534
                    ],
                    "bbox_min" : [
                        -0.4168839156627655,
                        -0.4539729952812195,
                        -7.310742233812562e-08
                    ],
                    "bbox_max" : [
                        0.4168839156627655,
                        0.41486304998397827,
                        0.8103283047676086
                    ],
                    "face_count" : 854,
                    "face_count_render" : 854,
                    "mesh_poly_type" : 1,
                    "manifold" : 0,
                    "modifiers" : "",
                    "object_count" : 1,
                    "upload_state" : "preparing upload",
                    "report" : "",
                    "asset_base_id" : "bd5cabae-1955-456c-a17e-276d799cdb22",
                    "id" : "b8947d94-4a6c-4b6a-b990-628f0104b0e3",
                    "uploading" : 0
                },
                "sparkar_optimization" : {
                    "InvertedReducePercentage" : 0
                },
                "spark_blender_addon" : 1
            },
            "mesh" : 0,
            "name" : "Chair Karlstad.001"
        }
    ],
    "materials" : [
        {
            "doubleSided" : true,
            "emissiveFactor" : [
                0,
                0,
                0
            ],
            "name" : "Texturas_PBR",
            "normalTexture" : {
                "index" : 0,
                "texCoord" : 0
            },
            "pbrMetallicRoughness" : {
                "baseColorTexture" : {
                    "index" : 1,
                    "texCoord" : 0
                },
                "metallicRoughnessTexture" : {
                    "index" : 2,
                    "texCoord" : 0
                },
                "roughnessFactor" : 0.7409090995788574
            }
        }
    ],
    "meshes" : [
        {
            "name" : "prop_chair_karlstad",
            "primitives" : [
                {
                    "attributes" : {
                        "POSITION" : 0,
                        "NORMAL" : 1,
                        "TEXCOORD_0" : 2
                    },
                    "indices" : 3,
                    "material" : 0
                }
            ]
        }
    ],
    "textures" : [
        {
            "source" : 0
        },
        {
            "source" : 1
        },
        {
            "source" : 2
        }
    ],
    "images" : [
        {
            "bufferView" : 4,
            "mimeType" : "image/jpeg",
            "name" : "Normal-map-min"
        },
        {
            "bufferView" : 5,
            "mimeType" : "image/jpeg",
            "name" : "Albedo-map-min"
        },
        {
            "bufferView" : 6,
            "mimeType" : "image/png",
            "name" : "ORM-map-min"
        }
    ],
    "accessors" : [
        {
            "bufferView" : 0,
            "componentType" : 5126,
            "count" : 591,
            "max" : [
                0.41700050234794617,
                0.8104819655418396,
                0.43405061960220337
            ],
            "min" : [
                -0.41700050234794617,
                0,
                -0.43405061960220337
            ],
            "type" : "VEC3"
        },
        {
            "bufferView" : 1,
            "componentType" : 5126,
            "count" : 591,
            "type" : "VEC3"
        },
        {
            "bufferView" : 2,
            "componentType" : 5126,
            "count" : 591,
            "type" : "VEC2"
        },
        {
            "bufferView" : 3,
            "componentType" : 5123,
            "count" : 1791,
            "type" : "SCALAR"
        }
    ],
    "bufferViews" : [
        {
            "buffer" : 0,
            "byteLength" : 7092,
            "byteOffset" : 0
        },
        {
            "buffer" : 0,
            "byteLength" : 7092,
            "byteOffset" : 7092
        },
        {
            "buffer" : 0,
            "byteLength" : 4728,
            "byteOffset" : 14184
        },
        {
            "buffer" : 0,
            "byteLength" : 3582,
            "byteOffset" : 18912
        },
        {
            "buffer" : 0,
            "byteLength" : 471620,
            "byteOffset" : 22496
        },
        {
            "buffer" : 0,
            "byteLength" : 330457,
            "byteOffset" : 494116
        },
        {
            "buffer" : 0,
            "byteLength" : 770206,
            "byteOffset" : 824576
        }
    ],
    "buffers" : [
        {
            "byteLength" : 1594784,
            "uri" : "data:application/octet-stream;base64,"
        }
    ]
}
